<svg width="23.000000" height="25.000000" viewBox="0 0 23 25" fill="none" xmlns="http://www.w3.org/2000/svg" xmlns:xlink="http://www.w3.org/1999/xlink">
	<desc>
			Created with Pixso.
	</desc>
	<defs/>
	<path id="Vector" d="M13.21 14.33C13.21 15.76 12.05 16.91 10.63 16.91C9.2 16.91 8.05 15.76 8.05 14.33C8.05 12.91 9.2 11.75 10.63 11.75C12.05 11.75 13.21 12.91 13.21 14.33Z" fill="#FFFFFF" fill-opacity="1.000000" fill-rule="nonzero"/>
	<path id="Vector" d="M5.15 7.38L16.1 7.38L16.1 3.82Q16.1 3.18 15.87 2.62Q15.64 2.07 15.19 1.61Q14.73 1.15 14.17 0.92Q13.62 0.69 12.97 0.69L8.28 0.69Q7.64 0.69 7.08 0.92Q6.53 1.15 6.07 1.61Q5.61 2.07 5.38 2.62Q5.15 3.18 5.15 3.82L5.15 7.38ZM17.5 7.38L17.66 7.38Q18.58 7.38 19.37 7.71Q20.15 8.04 20.81 8.69Q21.46 9.34 21.78 10.12Q22.11 10.91 22.11 11.83L22.11 20.04Q22.11 20.96 21.78 21.74Q21.46 22.53 20.81 23.18Q20.15 23.83 19.37 24.16Q18.58 24.48 17.66 24.48L3.52 24.48Q2.6 24.48 1.81 24.16Q1.02 23.83 0.37 23.18Q-0.28 22.53 -0.6 21.74Q-0.93 20.96 -0.93 20.04L-0.93 11.83Q-0.93 10.91 -0.6 10.12Q-0.28 9.34 0.37 8.69Q1.02 8.04 1.81 7.71Q2.6 7.38 3.52 7.38L3.76 7.38L3.76 3.82Q3.76 2.89 4.09 2.09Q4.42 1.29 5.08 0.62Q5.75 -0.04 6.55 -0.37Q7.35 -0.7 8.28 -0.7L12.97 -0.7Q13.91 -0.7 14.71 -0.37Q15.51 -0.04 16.17 0.62Q16.84 1.29 17.17 2.09Q17.5 2.89 17.5 3.82L17.5 7.38ZM3.52 8.78L17.66 8.78Q18.29 8.78 18.83 9Q19.37 9.23 19.82 9.67Q20.26 10.12 20.49 10.66Q20.71 11.2 20.71 11.83L20.71 20.04Q20.71 20.67 20.49 21.21Q20.26 21.75 19.82 22.19Q19.37 22.64 18.83 22.86Q18.29 23.09 17.66 23.09L3.52 23.09Q2.89 23.09 2.35 22.86Q1.81 22.64 1.36 22.19Q0.91 21.75 0.69 21.21Q0.47 20.67 0.47 20.04L0.47 11.83Q0.47 10.31 1.23 9.54Q1.99 8.78 3.52 8.78ZM9.93 17.54Q9.64 17.48 9.37 17.37Q8.79 17.13 8.31 16.65Q7.83 16.17 7.59 15.59Q7.35 15.01 7.35 14.33Q7.35 13.65 7.59 13.07Q7.83 12.5 8.31 12.02Q8.79 11.54 9.37 11.3Q9.95 11.06 10.63 11.06Q12.27 11.06 13.09 11.87Q13.9 12.69 13.9 14.33Q13.9 15.01 13.66 15.59Q13.42 16.17 12.95 16.65Q12.46 17.13 11.89 17.37Q11.62 17.48 11.33 17.54L11.33 19.64C11.33 20.04 11.02 20.34 10.63 20.34C10.24 20.34 9.93 20.04 9.93 19.64L9.93 17.54ZM12.04 15.74Q11.57 16.21 10.63 16.21Q9.69 16.21 9.22 15.74Q8.75 15.27 8.75 14.33Q8.75 13.39 9.22 12.92Q9.69 12.45 10.63 12.45Q11.02 12.45 11.35 12.59Q11.68 12.73 11.96 13Q12.23 13.28 12.37 13.61Q12.51 13.94 12.51 14.33Q12.51 15.27 12.04 15.74Z" fill="#FFFFFF" fill-opacity="1.000000" fill-rule="evenodd"/>
</svg>
