<svg width="18.000000" height="25.000000" viewBox="0 0 18 25" fill="none" xmlns="http://www.w3.org/2000/svg" xmlns:xlink="http://www.w3.org/1999/xlink">
	<desc>
			Created with Pixso.
	</desc>
	<defs/>
	<path id="Vector" d="M14.66 5.54C14.66 8.95 11.9 11.72 8.49 11.72C5.08 11.72 2.31 8.95 2.31 5.54C2.31 2.14 5.08 -0.63 8.49 -0.63C11.9 -0.63 14.66 2.14 14.66 5.54ZM13.43 5.54C13.43 8.28 11.22 10.49 8.49 10.49C5.75 10.49 3.54 8.28 3.54 5.54C3.54 2.81 5.75 0.6 8.49 0.6C11.22 0.6 13.43 2.81 13.43 5.54ZM13.32 13.92L4.04 13.92C1.73 13.92 -0.14 15.77 -0.14 18.05L-0.14 24.5L17.5 24.5L17.5 18.05C17.5 15.77 15.63 13.92 13.32 13.92ZM4.35 15.12L13.01 15.12C14.82 15.12 16.28 16.57 16.28 18.35L16.28 23.3L1.08 23.3L1.08 18.35C1.08 16.57 2.54 15.12 4.35 15.12Z" fill="#FFFFFF" fill-opacity="1.000000" fill-rule="evenodd"/>
</svg>
